# xmcd
#
# Track frame offsets:
#	150
#	18973
#	36638
#	52218
#	71260
#	87660
#	101843
#	123860
#	140443
#	160330
#	189648
#	207545
#	224788
#	241580
#	259305
#	280000
#	298595
#
# Disc length: 4219
#
# Revision: 1
# Processed by: cddbd v1.5.1PL0 Copyright (c) Steve Scherf et al.
# Submitted via: dBpowerAMP V4.0
# Normalized: r0:DSETVAR1,TDELIM( - )
#
DISCID=11107911
DTITLE=Various Artist - Greatest Hits '94, Vol.1
DYEAR=1994
DGENRE=Dance
TTITLE0=2 Brothers On The 4th Floor - Never Alone
TTITLE1=Culture Beat - Anything
TTITLE2=Mr. Big - Wild World
TTITLE3=Snoop Doggy Dogg - What's My Name
TTITLE4=2 Unlimited - Let The Beat Control Your Body
TTITLE5=Capella - U Got To Let The Music
TTITLE6=Take That - Babe
TTITLE7=Sagat - F** Dat
TTITLE8=Melodie MC - Dum Da Dum
TTITLE9=Phil Collins - Both Sides Of The Story
TTITLE10=D:Ream - Things Can Only Get Better
TTITLE11=T-Spoon - No Time 2 Waste
TTITLE12=Positive K - I Got a Man
TTITLE13=Twenty 4 Seven - Is It Love?
TTITLE14=Dynamic Base - africa
TTITLE15=Enigma - Return To Innocence
TTITLE16=Laura Pausini - La Solitudine
EXTD=
EXTT0=
EXTT1=
EXTT2=
EXTT3=
EXTT4=
EXTT5=
EXTT6=
EXTT7=
EXTT8=
EXTT9=
EXTT10=
EXTT11=
EXTT12=
EXTT13=
EXTT14=
EXTT15=
EXTT16=
PLAYORDER=
